<?xml version="1.0" encoding="UTF-8" standalone="no"?>
<svg
   xmlns:dc="http://purl.org/dc/elements/1.1/"
   xmlns:cc="http://creativecommons.org/ns#"
   xmlns:rdf="http://www.w3.org/1999/02/22-rdf-syntax-ns#"
   xmlns:svg="http://www.w3.org/2000/svg"
   xmlns="http://www.w3.org/2000/svg"
   width="116"
   height="187.99998"
   viewBox="0 0 30.691666 49.741664"
   version="1.1"
   id="svg2845"
   style="shape-rendering:crispEdges">
  <title
     id="title3390">Beagle Bros Clip Art - Balloons</title>
  <defs
     id="defs2839" />
  <metadata
     id="metadata2842">
    <rdf:RDF>
      <cc:Work
         rdf:about="">
        <dc:format>image/svg+xml</dc:format>
        <dc:type
           rdf:resource="http://purl.org/dc/dcmitype/StillImage" />
        <dc:title>Beagle Bros Clip Art - Balloons</dc:title>
        <dc:creator>
          <cc:Agent>
            <dc:title>Beagle Bros</dc:title>
          </cc:Agent>
        </dc:creator>
        <dc:publisher>
          <cc:Agent>
            <dc:title>Openclipart.org</dc:title>
          </cc:Agent>
        </dc:publisher>
        <dc:identifier>https://openclipart.org/</dc:identifier>
        <dc:subject>
          <rdf:Bag>
            <rdf:li>Beagle Bros</rdf:li>
            <rdf:li>retro</rdf:li>
            <rdf:li>8-bit</rdf:li>
            <rdf:li>8bit</rdf:li>
            <rdf:li>8 bit</rdf:li>
            <rdf:li>old school</rdf:li>
            <rdf:li>OldSchool</rdf:li>
            <rdf:li>old skool</rdf:li>
            <rdf:li>OldSkool</rdf:li>
            <rdf:li>low res</rdf:li>
            <rdf:li>LowRes</rdf:li>
            <rdf:li>Apple IIGS</rdf:li>
            <rdf:li>pixel art</rdf:li>
            <rdf:li>PixelArt</rdf:li>
            <rdf:li>balloon</rdf:li>
            <rdf:li />
          </rdf:Bag>
        </dc:subject>
        <dc:description>three balloons - Retro 8-bit bitmap style graphic from the  Beagle Bros Clip Art for the Apple IIGS.</dc:description>
        <dc:contributor>
          <cc:Agent>
            <dc:title>conversion to SVG...
Arvin61r58 (https://openclipart.org/user-detail/Arvin61r58)</dc:title>
          </cc:Agent>
        </dc:contributor>
        <cc:license
           rdf:resource="http://creativecommons.org/publicdomain/zero/1.0/" />
      </cc:Work>
      <cc:License
         rdf:about="http://creativecommons.org/publicdomain/zero/1.0/">
        <cc:permits
           rdf:resource="http://creativecommons.org/ns#Reproduction" />
        <cc:permits
           rdf:resource="http://creativecommons.org/ns#Distribution" />
        <cc:permits
           rdf:resource="http://creativecommons.org/ns#DerivativeWorks" />
      </cc:License>
    </rdf:RDF>
  </metadata>
  <g
     id="layer1"
     transform="translate(-89.65417,-123.62916)">
    <title
       id="title4623">Beagle Bros - Balloons</title>
    <g
       style="shape-rendering:crispEdges"
       id="g5977"
       transform="matrix(0.37499999,0,0,0.37499999,94.780471,165.01796)">
      <title
         id="title3408">Beagle Bros - Balloons</title>
      <path
         style="fill:#76a9fe;stroke-width:0.35277778"
         d="m 6.7909719,-48.281251 v -0.705556 h 0.70556 0.70555 v -0.705555 -0.705556 h 0.70556 0.70555 v -0.705556 -0.705555 h 0.7055601 0.70555 v 0.705555 0.705556 h 0.70556 0.70556 v 0.705556 0.705555 h 0.70555 0.70556 v 0.705556 0.705555 h -3.52778 -3.5277801 z m -1.41111,-5.644445 v -0.705555 h -2.11667 -2.11666 v -0.705556 -0.705556 h -0.70556004 -0.70555 v -0.705555 -0.705556 h -1.41111996 -1.41111 v -0.705555 -0.705556 h -0.70555 -0.70556 v -1.411111 -1.411111 h -0.705552 -0.705556 v -0.705556 -0.705555 h -0.705555 -0.705556 v -2.116667 -2.116667 h -0.705556 -0.705555 v -4.938888 -4.938889 h 0.705555 0.705556 v -2.116667 -2.116667 h 0.705556 0.705555 v -0.705555 -0.705556 h 0.705556 0.705552 v -1.411111 -1.411111 h 0.70556 0.70555 v -0.705556 -0.705555 h 1.41111 1.41111996 v -0.705556 -0.705555 h 0.70555 0.70556004 v -0.705556 -0.705556 h 2.11666 2.11667 v -0.705555 -0.705556 h 1.41111 1.41111 v 4.938889 4.938889 h 0.70556 0.70555 v 2.116667 2.116667 h 0.7055601 0.70555 v 1.411111 1.411111 h 0.70556 0.70556 v 0.705555 0.705556 h 0.70555 0.70556 v 0.705556 0.705555 h 0.70555 0.70556 v 0.705556 0.705555 h 0.70555 0.70556 v 0.705556 0.705555 h 1.41111 1.41111 v 0.705556 0.705555 h 2.11667 2.11666 v 0.705556 0.705556 h 0.70556 0.70556 v 1.411111 1.411111 h -0.70556 -0.70556 v 1.411111 1.411111 h 0.70556 0.70556 v 0.705556 0.705555 h -0.70556 -0.70556 v 0.705556 0.705555 h -1.41111 -1.41111 v 0.705556 0.705555 h -0.70555 -0.70556 v 0.705556 0.705556 h -2.11667 -2.11666 v 0.705555 0.705556 h -4.93889 -4.9388901 z m -8.46667,-23.988889 v -0.705556 h 0.70556 0.70555 v -0.705555 -0.705556 h -1.41111 -1.41111 v 1.411111 1.411112 h 0.70556 0.70555 z m 4.23334,-4.233333 v -0.705556 h 0.70555 0.70556 v -1.411111 -1.411111 H 0.44097186 -1.6756981 v 0.705555 0.705556 h -0.70555 -0.70556 v 1.411111 1.411111 h 2.11666996 2.11667004 z"
         id="path5965" />
      <path
         style="fill:#ed8798;stroke-width:0.35277778"
         d="m 25.135422,-62.392363 v -0.705555 h 0.70555 0.70556 v -0.705556 -0.705555 h 0.70555 0.70556 v -0.705556 -0.705555 h 0.70555 0.70556 v 0.705555 0.705556 h 0.70555 0.70556 v 0.705555 0.705556 h 0.70556 0.70555 v 0.705555 0.705556 h -3.52778 -3.52777 z m -1.41112,-5.644444 v -0.705556 h -2.11666 -2.11667 v -0.705555 -0.705556 h -0.70555 -0.70556 v -0.705555 -0.705556 h -1.41111 -1.41111 v -0.705555 -0.705556 h -0.70556 -0.70555 v -1.411111 -1.411111 h -0.70556 -0.70555 v -0.705556 -0.705555 h -0.70556 -0.70556 v -2.116667 -2.116667 h -0.70555 -0.7055601 v -4.938889 -4.938889 h 0.7055601 0.70555 v -2.116666 -2.116667 h 0.70556 0.70556 v -0.705556 -0.705555 h 0.70555 0.70556 v -1.411111 -1.411111 h 0.70555 0.70556 v -0.705553 -0.70556 h 1.41111 1.41111 v -0.70555 -0.70556 h 0.70556 0.70555 v -0.70555 -0.70556 h 2.11667 2.11666 v -0.70556 -0.70555 h 4.93889 4.93889 v 0.70555 0.70556 h 2.11667 2.11666 v 0.70556 0.70555 h 0.70556 0.70556 v 0.70556 0.70555 h 1.41111 1.41111 v 0.70556 0.705553 h 0.70555 0.70556 v 1.411111 1.411111 h 0.70555 0.70556 v 0.705555 0.705556 h 0.70556 0.70555 v 2.116667 2.116666 h 0.70556 0.70555 v 4.938889 4.938889 h -0.70555 -0.70556 v 2.116667 2.116667 h -0.70555 -0.70556 v 0.705555 0.705556 h -0.70556 -0.70555 v 1.411111 1.411111 h -0.70556 -0.70555 v 0.705556 0.705555 h -1.41111 -1.41111 v 0.705556 0.705555 h -0.70556 -0.70556 v 0.705556 0.705555 h -2.11666 -2.11667 v 0.705556 0.705555 h -4.93889 -4.93889 z m -5.64444,-21.872223 v -1.411111 h -1.41111 -1.41111 v 1.411111 1.411112 h 1.41111 1.41111 z m 1.41111,-4.938888 v -0.705556 h 0.70556 0.70555 v -0.705556 -0.705555 h 0.70556 0.70555 v -1.411111 -1.411111 h -1.41111 -1.41111 v 0.705555 0.705556 h -0.70555 -0.70556 v 0.705555 0.705556 h -0.70556 -0.70555 v 1.411111 1.411111 h 1.41111 1.41111 z"
         id="path5963" />
      <path
         style="fill:#ffffff;stroke-width:0.35277778"
         d="m 59.002082,-73.681252 v -0.705555 h 0.70556 0.70555 v 0.705555 0.705556 h -0.70555 -0.70556 z m -63.5000001,-4.938889 v -1.411111 h 1.41111 1.41111 v 0.705556 0.705555 h -0.70555 -0.70556 v 0.705556 0.705556 h -0.70555 -0.70556 z m 62.0888901,0.705556 v -0.705556 h -0.70556 -0.70555 v -1.411111 -1.411111 h 0.70555 0.70556 v 0.705556 0.705555 h 0.70556 0.70555 v 1.411111 1.411112 h -0.70555 -0.70556 z m -60.6777801,-4.938889 v -1.411111 h 0.70556 0.70555 v -0.705556 -0.705555 H 0.44097186 2.5576419 v 1.411111 1.411111 h -0.70556 -0.70555 v 0.705556 0.705555 H -0.97013814 -3.0868081 Z M 15.257642,-89.90903 v -1.411111 h 1.41111 1.41111 v 1.411111 1.411112 h -1.41111 -1.41111 z m 1.41111,-5.644444 v -1.411111 h 0.70556 0.70555 v -0.705556 -0.705555 h 0.70556 0.70555 v -0.705556 -0.705555 h 1.41111 1.41111 v 1.411111 1.411111 h -0.70555 -0.70556 v 0.705555 0.705556 h -0.70555 -0.70556 v 0.705556 0.705555 h -1.41111 -1.41111 z"
         id="path5961" />
      <path
         style="fill:#981010;stroke-width:0.35277778"
         d="m 40.657642,-48.281251 v -0.705556 h 0.70555 0.70556 v -0.705555 -0.705556 h 0.70555 0.70556 v -0.705556 -0.705555 h 0.70555 0.70556 v 0.705555 0.705556 h 0.70556 0.70555 v 0.705556 0.705555 h 0.70556 0.70555 v 0.705556 0.705555 h -3.52778 -3.52777 z m -1.41111,-5.644445 v -0.705555 h -2.11667 -2.11667 v -0.705556 -0.705556 h -0.70555 -0.70556 v -0.705555 -0.705556 h -1.41111 -1.41111 v -0.705555 -0.705556 h -0.70556 -0.70555 v -0.705555 -0.705556 h 2.11667 2.11666 v -1.411111 -1.411111 h -0.70555 -0.70556 v -0.705556 -0.705555 h -0.70555 -0.70556 v -0.705556 -0.705555 h 1.41111 1.41111 v -0.705556 -0.705556 h 2.11667 2.11666 v -0.705555 -0.705556 h 1.41112 1.41111 v -0.705555 -0.705556 h 0.70555 0.70556 v -0.705555 -0.705556 h 0.70555 0.70556 v -0.705555 -0.705556 h 0.70555 0.70556 v -0.705556 -0.705555 h 0.70556 0.70555 v -1.411111 -1.411111 h 0.70556 0.70555 v -2.116667 -2.116667 h 0.70556 0.70555 v -4.233333 -4.233334 h 2.11667 2.11667 v 0.705556 0.705556 h 0.70555 0.70556 v 0.705555 0.705556 h 1.41111 1.41111 v 0.705555 0.705556 h 0.70556 0.70555 v 1.411111 1.411111 h 0.70556 0.70555 v 0.705556 0.705555 h 0.70556 0.70555 v 2.116667 2.116667 h 0.70556 0.70556 v 4.938889 4.938888 h -0.70556 -0.70556 v 2.116667 2.116667 h -0.70555 -0.70556 v 0.705555 0.705556 h -0.70555 -0.70556 v 1.411111 1.411111 h -0.70555 -0.70556 v 0.705556 0.705555 h -1.41111 -1.41111 v 0.705556 0.705555 h -0.70556 -0.70555 v 0.705556 0.705556 h -2.11667 -2.11667 v 0.705555 0.705556 h -4.93889 -4.93888 z m 21.16666,-19.755556 v -0.705555 h -0.70555 -0.70556 v 0.705555 0.705556 h 0.70556 0.70555 z m -1.41111,-4.938889 v -1.411111 h -0.70555 -0.70556 v -0.705555 -0.705556 h -0.70556 -0.70555 v 1.411111 1.411111 h 0.70555 0.70556 v 0.705556 0.705556 h 0.70556 0.70555 z"
         id="path5959" />
      <path
         style="fill:#000000;stroke-width:0.35277778"
         d="m 9.6131919,-13.709029 v -32.455556 h -2.11666 -2.11667 v -1.411111 -1.411111 h 0.70556 0.70555 v -0.705555 -0.705556 h 0.70556 0.70555 v -0.705556 -0.705555 h -1.41111 -1.41111 v -0.705556 -0.705555 h -2.11667 -2.11666 v -0.705556 -0.705555 H -0.26457814 -1.6756981 v -0.705556 -0.705556 h -0.70555 -0.70556 v -0.705555 -0.705556 h -0.70555 -0.70556 v -0.705555 -0.705556 h -0.705552 -0.705556 v -0.705555 -0.705556 h -0.705555 -0.705556 v -1.411111 -1.411111 h -0.705556 -0.705555 v -2.116667 -2.116667 h -0.705556 -0.7055549 v -4.938888 -4.938889 h 0.7055549 0.705556 v -2.116667 -2.116667 h 0.705555 0.705556 v -1.411111 -1.411111 h 0.705556 0.705555 v -0.705556 -0.705555 h 0.705556 0.705552 v -0.705556 -0.705555 h 0.70556 0.70555 v -0.705556 -0.705555 h 0.70556 0.70555 v -0.705556 -0.705556 h 1.41111996 1.41111004 v -0.705555 -0.705556 h 2.11666 2.11667 v -0.705555 -0.705556 h 2.11667 2.11666 v -1.411111 -1.411111 h 0.7055601 0.70555 v -1.411111 -1.411111 h 0.70556 0.70556 v -0.705556 -0.705555 h 0.70555 0.70556 v -0.705553 -0.70556 h 0.70555 0.70556 v -0.70555 -0.70556 h 0.70555 0.70556 v -0.70555 -0.70556 h 1.41111 1.41111 v -0.70556 -0.70555 h 2.11667 2.11666 v -0.70556 -0.70555 h 4.93889 4.93889 v 0.70555 0.70556 h 2.11667 2.11666 v 0.70555 0.70556 h 1.41112 1.41111 v 0.70556 0.70555 h 0.70555 0.70556 v 0.70556 0.70555 h 0.70555 0.70556 v 0.70556 0.705553 h 0.70555 0.70556 v 0.705555 0.705556 h 0.70556 0.70555 v 1.411111 1.411111 h 0.70556 0.70555 v 1.411111 1.411111 h 0.70556 0.70555 v 0.705556 0.705555 h 2.11667 2.11667 v 0.705556 0.705555 h 1.41111 1.41111 v 0.705556 0.705556 h 0.70555 0.70556 v 0.705555 0.705556 h 0.70556 0.70555 v 0.705555 0.705556 h 0.70556 0.70555 v 0.705555 0.705556 h 0.70556 0.70555 v 1.411111 1.411111 h 0.70556 0.70555 v 2.116667 2.116667 h 0.70556 0.70556 v 4.938889 4.938888 h -0.70556 -0.70556 v 2.116667 2.116667 h -0.70555 -0.70556 v 1.411111 1.411111 h -0.70555 -0.70556 v 0.705556 0.705555 h -0.70555 -0.70556 v 0.705556 0.705555 h -0.70555 -0.70556 v 0.705556 0.705555 h -0.70556 -0.70555 v 0.705556 0.705556 h -1.41111 -1.41111 v 0.705555 0.705556 h -2.11667 -2.11667 v 0.705555 0.705556 h -1.41111 -1.41111 v 0.705555 0.705556 h 0.70556 0.70555 v 0.705556 0.705555 h 0.70556 0.70555 v 1.411111 1.411111 h -2.11666 -2.11667 v 31.044445 31.044445 h -0.70556 -0.70555 V -15.12014 -46.164585 h -2.11667 -2.11666 v -1.411111 -1.411111 h 0.70555 0.70556 v -0.705555 -0.705556 h 0.70555 0.70556 v -0.705556 -0.705555 h -1.41111 -1.41111 v -0.705556 -0.705555 h -2.11667 -2.11667 v -0.705556 -0.705555 h -1.41111 -1.41111 v -0.705556 -0.705556 h -0.70555 -0.70556 v -0.705555 -0.705556 h -0.70556 -0.70555 v 38.100001 38.1 h -0.70556 -0.70555 v -39.511111 -39.511112 h -0.70556 -0.70555 v 0.705556 0.705555 h -0.70556 -0.70555 v 0.705556 0.705555 h -0.70556 -0.70556 v 0.705556 0.705555 h -0.70555 -0.70556 v 0.705556 0.705556 h -1.41111 -1.41111 v 0.705555 0.705556 h -2.11667 -2.11666 v 0.705555 0.705556 h -1.41111 -1.41111 v 0.705555 0.705556 h 0.70555 0.70556 v 0.705556 0.705555 h 0.70555 0.70556 v 1.411111 1.411111 h -2.11667 -2.11667 v 32.455556 32.455556 h -0.70555 -0.7055601 z m 4.2333401,-34.572222 v -0.705556 h -0.70556 -0.70555 v -0.705555 -0.705556 h -0.70556 -0.70556 v -0.705556 -0.705555 h -0.70555 -0.7055601 v 0.705555 0.705556 h -0.70555 -0.70556 v 0.705556 0.705555 h -0.70555 -0.70556 v 0.705556 0.705555 h 3.5277801 3.52778 z m 33.86666,0 v -0.705556 h -0.70555 -0.70556 v -0.705555 -0.705556 h -0.70555 -0.70556 v -0.705556 -0.705555 h -0.70556 -0.70555 v 0.705555 0.705556 h -0.70556 -0.70555 v 0.705556 0.705555 h -0.70556 -0.70555 v 0.705556 0.705555 h 3.52777 3.52778 z m -32.45555,-5.644445 v -0.705555 h 2.11667 2.11666 v -0.705556 -0.705556 h 0.70556 0.70555 v -0.705555 -0.705556 h 1.41111 1.41111 v -0.705555 -0.705556 h 0.70556 0.70556 v -0.705555 -0.705556 h -0.70556 -0.70556 v -1.411111 -1.411111 h 0.70556 0.70556 v 0.705555 0.705556 h 3.52777 3.52778 v -0.705556 -0.705555 h 0.70556 0.70555 v 1.411111 1.411111 h -2.11666 -2.11667 v 0.705556 0.705555 h 0.70555 0.70556 v 0.705556 0.705555 h 1.41111 1.41111 v 0.705556 0.705555 h 0.70556 0.70555 v 0.705556 0.705556 h 2.11667 2.11667 v 0.705555 0.705556 h 4.93888 4.93889 v -0.705556 -0.705555 h 2.11667 2.11667 v -0.705556 -0.705556 h 0.70555 0.70556 v -0.705555 -0.705556 h 1.41111 1.41111 v -0.705555 -0.705556 h 0.70556 0.70555 v -1.411111 -1.411111 h 0.70556 0.70555 v -0.705556 -0.705555 h 0.70556 0.70555 v -2.116667 -2.116667 h 0.70556 0.70555 v -4.938888 -4.938889 h -0.70555 -0.70556 v -2.116667 -2.116667 h -0.70555 -0.70556 v -0.705555 -0.705556 h -0.70555 -0.70556 v -1.411111 -1.411111 h -0.70555 -0.70556 v -0.705556 -0.705555 h -1.41111 -1.41111 v -0.705556 -0.705555 h -0.70556 -0.70555 v -0.705556 -0.705556 h -2.11667 -2.11667 v 4.233334 4.233333 h -0.70555 -0.70556 v -4.938889 -4.938889 h -0.70555 -0.70556 v -2.116666 -2.116667 h -0.70555 -0.70556 v -0.705556 -0.705555 h -0.70556 -0.70555 v -1.411111 -1.411111 h -0.70556 -0.70555 v -0.705553 -0.70556 h -1.41111 -1.41111 v -0.70555 -0.70556 h -0.70556 -0.70556 v -0.70555 -0.70556 h -2.11666 -2.11667 v -0.70556 -0.70555 h -4.93889 -4.93889 v 0.70555 0.70556 h -2.11666 -2.11667 v 0.70556 0.70555 h -0.70555 -0.70556 v 0.70556 0.70555 h -1.41111 -1.41111 v 0.70556 0.705553 h -0.70556 -0.70555 v 1.411111 1.411111 h -0.70556 -0.70555 v 0.705555 0.705556 h -0.70556 -0.70556 v 2.116667 2.116666 h -0.70555 -0.7055601 v 4.938889 4.938889 h -0.70555 -0.70556 v -4.938889 -4.938889 h -1.41111 -1.41111 v 0.705556 0.705555 h -2.11667 -2.11666 v 0.705556 0.705556 h -0.70556004 -0.70555 v 0.705555 0.705556 h -1.41111996 -1.41111 v 0.705555 0.705556 h -0.70555 -0.70556 v 1.411111 1.411111 h -0.705552 -0.705556 v 0.705556 0.705555 h -0.705555 -0.705556 v 2.116667 2.116667 h -0.705556 -0.705555 v 4.938889 4.938888 h 0.705555 0.705556 v 2.116667 2.116667 h 0.705556 0.705555 v 0.705555 0.705556 h 0.705556 0.705552 v 1.411111 1.411111 h 0.70556 0.70555 v 0.705556 0.705555 h 1.41111 1.41111996 v 0.705556 0.705555 h 0.70555 0.70556004 v 0.705556 0.705556 h 2.11666 2.11667 v 0.705555 0.705556 h 4.9388901 4.93889 z m 9.87778,-10.583333 v -1.411111 h -0.70556 -0.70556 v -0.705556 -0.705556 h -2.11666 -2.11667 v -0.705555 -0.705556 h -1.41111 -1.41111 v -0.705555 -0.705556 h -0.70556 -0.70555 v -0.705555 -0.705556 h -0.70556 -0.70555 v -0.705555 -0.705556 h -0.70556 -0.70555 v -0.705556 -0.705555 h -0.70556 -0.70556 v -1.411111 -1.411111 h -0.70555 -0.7055601 v -2.116667 -2.116667 h 0.7055601 0.70555 v 2.116667 2.116667 h 0.70556 0.70556 v 0.705555 0.705556 h 0.70555 0.70556 v 1.411111 1.411111 h 0.70555 0.70556 v 0.705556 0.705555 h 1.41111 1.41111 v 0.705556 0.705555 h 0.70556 0.70555 v 0.705556 0.705555 h 2.11667 2.11666 v 0.705556 0.705555 h 4.93889 4.93889 v -0.705555 -0.705556 h 2.11667 2.11666 v -0.705555 -0.705556 h 0.70556 0.70556 v -0.705555 -0.705556 h 1.41111 1.41111 v -0.705555 -0.705556 h 0.70555 0.70556 v -1.411111 -1.411111 h 0.70555 0.70556 v -0.705556 -0.705555 h 0.70556 0.70555 v -2.116667 -2.116667 h 0.70556 0.70555 v 2.116667 2.116667 h -0.70555 -0.70556 v 1.411111 1.411111 h -0.70555 -0.70556 v 0.705555 0.705556 h -0.70556 -0.70555 v 0.705556 0.705555 h -0.70556 -0.70555 v 0.705556 0.705555 h -0.70556 -0.70555 v 0.705556 0.705555 h -1.41111 -1.41112 v 0.705556 0.705555 h -2.11666 -2.11667 v 0.705556 0.705556 h -1.41111 -1.41111 v 0.705555 0.705556 h 0.70556 0.70555 v 0.705555 0.705556 h -0.70555 -0.70556 v -0.705556 -0.705555 h -0.70556 -0.70555 v -0.705556 -0.705555 h -0.70556 -0.70555 v 0.705555 0.705556 h -0.70556 -0.70555 v 0.705555 0.705556 h -0.70556 -0.70555 z"
         id="path5957" />
    </g>
  </g>
</svg>
